<?xml version="1.0" encoding="UTF-8" standalone="no"?>
<svg
   xmlns:dc="http://purl.org/dc/elements/1.1/"
   xmlns:cc="http://creativecommons.org/ns#"
   xmlns:rdf="http://www.w3.org/1999/02/22-rdf-syntax-ns#"
   xmlns:svg="http://www.w3.org/2000/svg"
   xmlns="http://www.w3.org/2000/svg"
   xmlns:sodipodi="http://sodipodi.sourceforge.net/DTD/sodipodi-0.dtd"
   xmlns:inkscape="http://www.inkscape.org/namespaces/inkscape"
   inkscape:version="1.0alpha (unknown)"
   sodipodi:docname="slider.svg"
   version="1"
   height="128"
   width="128"
   id="svg2">
  <metadata
     id="metadata59">
    <rdf:RDF>
      <cc:Work
         rdf:about="">
        <dc:format>image/svg+xml</dc:format>
        <dc:type
           rdf:resource="http://purl.org/dc/dcmitype/StillImage" />
      </cc:Work>
    </rdf:RDF>
  </metadata>
  <defs
     id="defs57" />
  <sodipodi:namedview
     inkscape:current-layer="svg2"
     inkscape:cy="91.858571"
     inkscape:cx="40.209783"
     inkscape:zoom="16.016588"
     showgrid="false"
     id="namedview55"
     inkscape:window-height="480"
     inkscape:window-width="640"
     inkscape:pageshadow="2"
     inkscape:pageopacity="0"
     guidetolerance="10"
     gridtolerance="10"
     objecttolerance="10"
     borderopacity="1"
     inkscape:document-rotation="0"
     bordercolor="#666666"
     pagecolor="#ffffff" />
  <g
     id="layer1">
    <path
       style="opacity:0.2;fill:#000000;fill-opacity:1"
       d="m 10,7 0,3 3,0 0,-3 -3,0 z"
       id="groove-top" />
    <path
       style="opacity:0.2;fill:#000000;fill-opacity:1"
       d="M 9,7 C 7.31784,7 6,8.31784 6,10 l 3,0 z"
       id="groove-topleft" />
    <rect
       style="fill:#4e9a06;fill-opacity:1;fill-rule:nonzero;stroke:none"
       ry="2.077"
       rx="0"
       y="4.66"
       x="2.26"
       height="2.077"
       width="2.033"
       id="hint-tile-center" />
    <path
       style="opacity:0.2;fill:#000000;fill-opacity:1"
       d="M 17,10 C 17,8.31784 15.68216,7 14,7 l 0,3 z"
       id="groove-topright" />
    <path
       style="opacity:0.2;fill:#000000;fill-opacity:1"
       d="m 10,18 0,-3 3,0 0,3 -3,0 z"
       id="groove-bottom" />
    <path
       style="opacity:0.2;fill:#000000;fill-opacity:1"
       d="M 9,18 C 7.31784,18 6,16.68216 6,15 l 3,0 z"
       id="groove-bottomleft" />
    <path
       style="opacity:0.2;fill:#000000;fill-opacity:1"
       d="m 17,15 c 0,1.68216 -1.31784,3 -3,3 l 0,-3 z"
       id="groove-bottomright" />
    <path
       style="opacity:0.2;fill:#000000;fill-opacity:1"
       d="m 10,11 0,3 3,0 0,-3 -3,0 z"
       id="groove-center" />
    <path
       style="opacity:0.2;fill:#000000;fill-opacity:1"
       d="m 6,11 0,3 3,0 0,-3 -3,0 z"
       id="groove-left" />
    <path
       style="opacity:0.2;fill:#000000;fill-opacity:1"
       d="m 14,11 0,3 3,0 0,-3 -3,0 z"
       id="groove-right" />
    <path
       style="fill:#88c0d0;fill-opacity:1;opacity:1"
       d="m 28,7 0,3 3,0 0,-3 -3,0 z"
       id="groove-highlight-top" />
    <path
       style="fill:#88c0d0;fill-opacity:1;opacity:1"
       d="m 27,7 c -1.68216,0 -3,1.31784 -3,3 l 3,0 z"
       id="groove-highlight-topleft" />
    <path
       style="fill:#88c0d0;fill-opacity:1;opacity:1"
       d="M 35,10 C 35,8.31784 33.68216,7 32,7 l 0,3 z"
       id="groove-highlight-topright" />
    <path
       style="fill:#88c0d0;fill-opacity:1;opacity:1"
       d="m 28,18 0,-3 3,0 0,3 -3,0 z"
       id="groove-highlight-bottom" />
    <path
       style="fill:#88c0d0;fill-opacity:1;opacity:1"
       d="m 27,18 c -1.68216,0 -3,-1.31784 -3,-3 l 3,0 z"
       id="groove-highlight-bottomleft" />
    <path
       style="fill:#88c0d0;fill-opacity:1;opacity:1"
       d="m 35,15 c 0,1.68216 -1.31784,3 -3,3 l 0,-3 z"
       id="groove-highlight-bottomright" />
    <path
       style="fill:#88c0d0;fill-opacity:1;opacity:1"
       d="m 28,11 0,3 3,0 0,-3 -3,0 z"
       id="groove-highlight-center" />
    <path
       style="fill:#88c0d0;fill-opacity:1;opacity:1"
       d="m 24,11 0,3 3,0 0,-3 -3,0 z"
       id="groove-highlight-left" />
    <path
       style="fill:#88c0d0;fill-opacity:1;opacity:1"
       d="m 32,11 0,3 3,0 0,-3 -3,0 z"
       id="groove-highlight-right" />
    <g
       transform="matrix(1.2,0,0,1.2,-2.2,63.2)"
       id="horizontal-slider-handle">
      <rect
         style="opacity:0.00100002;fill:#000000;fill-opacity:0.00392157;stroke:none"
         transform="matrix(0.83333333,0,0,0.83333333,-5.6666667,-6)"
         y="42"
         x="14"
         height="24"
         width="24"
         id="rect3785-4" />
      <path
         style="opacity:0.2;fill:#000000;fill-opacity:1"
         transform="matrix(2.0833333,0,0,2.0833333,-13.166666,-44.333332)"
         d="m 18,40 a 4,4 0 0 1 -4,4 4,4 0 0 1 -4,-4 4,4 0 0 1 4,-4 4,4 0 0 1 4,4 z"
         id="path3921-2" />
      <path
         style="fill:#4c566a;fill-opacity:1;opacity:1"
         transform="matrix(1.875,0,0,1.875,-10.25,-36)"
         d="m 18,40 a 4,4 0 0 1 -4,4 4,4 0 0 1 -4,-4 4,4 0 0 1 4,-4 4,4 0 0 1 4,4 z"
         id="path3923-4" />
    </g>
    <g
       transform="matrix(1.2,0,0,1.2,-2.2,27.2)"
       id="vertical-slider-handle">
      <rect
         style="opacity:0.00100002;fill:#000000;fill-opacity:0.00392157;stroke:none"
         transform="matrix(0.83333333,0,0,0.83333333,-5.6666667,-6)"
         y="42"
         x="14"
         height="24"
         width="24"
         id="rect3922" />
      <path
         style="opacity:0.2;fill:#000000;fill-opacity:1"
         transform="matrix(2.0833333,0,0,2.0833333,-13.166666,-44.333332)"
         d="m 18,40 a 4,4 0 0 1 -4,4 4,4 0 0 1 -4,-4 4,4 0 0 1 4,-4 4,4 0 0 1 4,4 z"
         id="path3924" />
      <path
         style="fill:#4c566a;fill-opacity:1;opacity:1"
         transform="matrix(1.875,0,0,1.875,-10.25,-36)"
         d="m 18,40 a 4,4 0 0 1 -4,4 4,4 0 0 1 -4,-4 4,4 0 0 1 4,-4 4,4 0 0 1 4,4 z"
         id="path3926" />
    </g>
    <g
       style="opacity:0.01"
       id="horizontal-slider-shadow">
      <rect
         style="opacity:0.00100002;fill:#000000;fill-opacity:0.00392157;stroke:none"
         y="98"
         x="96"
         height="24"
         width="24"
         id="rect3114" />
      <path
         style="opacity:0.05;color:#3daee9;fill:#000000;fill-opacity:1"
         d="m 108,99 c -6.07513,0 -11,4.92487 -11,11 0,6.07513 4.92487,11 11,11 6.07513,0 11,-4.92487 11,-11 0,-6.07513 -4.92487,-11 -11,-11 z m 0,1 c 5.52285,0 10,4.47715 10,10 0,5.52285 -4.47715,10 -10,10 -5.52285,0 -10,-4.47715 -10,-10 0,-5.52285 4.47715,-10 10,-10 z"
         id="path3118" />
      <path
         style="opacity:0.15;color:#3daee9;fill:#000000;fill-opacity:1"
         d="M 115.71875,103.625 C 117.14531,105.35359 118,107.58375 118,110 c 0,2.76963 -1.14961,5.2516 -2.96875,7.0625 C 113.2229,118.86267 110.75322,120 108,120 c -2.76143,0 -5.25285,-1.12786 -7.0625,-2.9375 1.83415,2.22247 4.61215,3.625 7.71875,3.625 5.52285,0 10,-4.47715 10,-10 0,-2.76143 -1.12786,-5.25286 -2.9375,-7.0625 z"
         id="path3037" />
    </g>
    <g
       style="opacity:0.01"
       transform="translate(3,-36)"
       id="vertical-slider-shadow">
      <rect
         style="opacity:0.00100002;fill:#000000;fill-opacity:0.00392157;stroke:none"
         y="98"
         x="96"
         height="24"
         width="24"
         id="rect3824" />
      <path
         style="opacity:0.05;color:#3daee9;fill:#000000;fill-opacity:1"
         d="m 108,99 c -6.07513,0 -11,4.92487 -11,11 0,6.07513 4.92487,11 11,11 6.07513,0 11,-4.92487 11,-11 0,-6.07513 -4.92487,-11 -11,-11 z m 0,1 c 5.52285,0 10,4.47715 10,10 0,5.52285 -4.47715,10 -10,10 -5.52285,0 -10,-4.47715 -10,-10 0,-5.52285 4.47715,-10 10,-10 z"
         id="path3826" />
      <path
         style="opacity:0.15;color:#3daee9;fill:#000000;fill-opacity:1"
         d="M 115.71875,103.625 C 117.14531,105.35359 118,107.58375 118,110 c 0,2.76963 -1.14961,5.2516 -2.96875,7.0625 C 113.2229,118.86267 110.75322,120 108,120 c -2.76143,0 -5.25285,-1.12786 -7.0625,-2.9375 1.83415,2.22247 4.61215,3.625 7.71875,3.625 5.52285,0 10,-4.47715 10,-10 0,-2.76143 -1.12786,-5.25286 -2.9375,-7.0625 z"
         id="path3828" />
    </g>
    <g
       transform="matrix(1.2,0,0,1.2,27.8,63.2)"
       id="horizontal-slider-hover">
      <rect
         style="opacity:0.00100002;fill:#000000;fill-opacity:0.00392157;stroke:none"
         transform="matrix(0.83333333,0,0,0.83333333,-5.6666667,-6)"
         y="42"
         x="14"
         height="24"
         width="24"
         id="rect4204" />
      <circle
         style="color:#31363b;opacity:0.2;fill:#000000;fill-opacity:1"
         transform="matrix(2.0833333,0,0,2.0833333,-13.166666,-44.333332)"
         r="4"
         cy="40"
         cx="14"
         id="path4206" />
      <circle
         style="color:#eff0f1;opacity:1;fill:#667084;fill-opacity:1"
         transform="matrix(1.875,0,0,1.875,-10.25,-36)"
         r="4"
         cy="40"
         cx="14"
         id="path4208" />
    </g>
    <g
       transform="matrix(1.2,0,0,1.2,27.8,27.2)"
       id="vertical-slider-hover">
      <rect
         style="opacity:0.00100002;fill:#000000;fill-opacity:0.00392157;stroke:none"
         transform="matrix(0.83333333,0,0,0.83333333,-5.6666667,-6)"
         y="42"
         x="14"
         height="24"
         width="24"
         id="rect4212" />
      <circle
         style="color:#31363b;opacity:0.2;fill:#000000;fill-opacity:1"
         transform="matrix(2.0833333,0,0,2.0833333,-13.166666,-44.333332)"
         r="4"
         cy="40"
         cx="14"
         id="path4214" />
      <circle
         style="color:#eff0f1;opacity:1;fill:#667084;fill-opacity:1"
         transform="matrix(1.875,0,0,1.875,-10.25,-36)"
         r="4"
         cy="40"
         cx="14"
         id="path4216" />
    </g>
    <g
       transform="matrix(1.2,0,0,1.2,57.8,63.2)"
       id="horizontal-slider-focus">
      <rect
         style="opacity:0.00100002;fill:#000000;fill-opacity:0.00392157;stroke:none"
         transform="matrix(0.83333333,0,0,0.83333333,-5.6666667,-6)"
         y="42"
         x="14"
         height="24"
         width="24"
         id="rect4220" />
      <circle
         style="color:#31363b;opacity:1;fill:#88c0d0;fill-opacity:1"
         transform="matrix(2.0833333,0,0,2.0833333,-13.166666,-44.333332)"
         r="4"
         cy="40"
         cx="14"
         id="circle4222" />
      <circle
         style="color:#eff0f1;opacity:1;fill:#88c0d0;fill-opacity:1"
         transform="matrix(1.875,0,0,1.875,-10.25,-36)"
         r="4"
         cy="40"
         cx="14"
         id="circle4224" />
    </g>
    <g
       transform="matrix(1.2,0,0,1.2,57.8,27.2)"
       id="vertical-slider-focus">
      <rect
         style="opacity:0.00100002;fill:#000000;fill-opacity:0.00392157;stroke:none"
         transform="matrix(0.83333333,0,0,0.83333333,-5.6666667,-6)"
         y="42"
         x="14"
         height="24"
         width="24"
         id="rect4228" />
      <circle
         style="color:#31363b;opacity:1;fill:#88c0d0;fill-opacity:1"
         transform="matrix(2.0833333,0,0,2.0833333,-13.166666,-44.333332)"
         r="4"
         cy="40"
         cx="14"
         id="circle4230" />
      <circle
         style="color:#eff0f1;opacity:1;fill:#88c0d0;fill-opacity:1"
         transform="matrix(1.875,0,0,1.875,-10.25,-36)"
         r="4"
         cy="40"
         cx="14"
         id="circle4232" />
    </g>
  </g>
</svg>
