<?xml version="1.0" encoding="UTF-8" standalone="no"?>
<svg
   xmlns:dc="http://purl.org/dc/elements/1.1/"
   xmlns:cc="http://creativecommons.org/ns#"
   xmlns:rdf="http://www.w3.org/1999/02/22-rdf-syntax-ns#"
   xmlns:svg="http://www.w3.org/2000/svg"
   xmlns="http://www.w3.org/2000/svg"
   xmlns:xlink="http://www.w3.org/1999/xlink"
   xmlns:sodipodi="http://sodipodi.sourceforge.net/DTD/sodipodi-0.dtd"
   xmlns:inkscape="http://www.inkscape.org/namespaces/inkscape"
   inkscape:version="1.0alpha (unknown)"
   sodipodi:docname="viewitem.svg"
   version="1"
   height="161"
   width="257"
   id="svg7080">
  <metadata
     id="metadata130">
    <rdf:RDF>
      <cc:Work
         rdf:about="">
        <dc:format>image/svg+xml</dc:format>
        <dc:type
           rdf:resource="http://purl.org/dc/dcmitype/StillImage" />
      </cc:Work>
    </rdf:RDF>
  </metadata>
  <sodipodi:namedview
     inkscape:current-layer="svg7080"
     inkscape:cy="78.342385"
     inkscape:cx="111.49603"
     inkscape:zoom="8.8542066"
     showgrid="false"
     id="namedview128"
     inkscape:window-height="480"
     inkscape:window-width="640"
     inkscape:pageshadow="2"
     inkscape:pageopacity="0"
     guidetolerance="10"
     gridtolerance="10"
     objecttolerance="10"
     borderopacity="1"
     inkscape:document-rotation="0"
     bordercolor="#666666"
     pagecolor="#ffffff" />
  <defs
     id="defs7082">
    <linearGradient
       id="linearGradient8746">
      <stop
         style="stop-color:#ffffff;stop-opacity:1"
         offset="0"
         id="stop8748" />
      <stop
         style="stop-color:#ffffff;stop-opacity:0"
         offset="1"
         id="stop8750" />
    </linearGradient>
    <linearGradient
       id="linearGradient8734">
      <stop
         style="stop-color:#ffffff;stop-opacity:1"
         offset="0"
         id="stop8736" />
      <stop
         style="stop-color:#ffffff;stop-opacity:0"
         offset="1"
         id="stop8738" />
    </linearGradient>
    <radialGradient
       xlink:href="#linearGradient8734"
       gradientUnits="userSpaceOnUse"
       gradientTransform="matrix(1.7747169,0,0,1.1566649,-709.57584,314.76359)"
       fy="229.368"
       fx="355.285"
       r="70"
       cy="229.368"
       cx="355.285"
       id="radialGradient12915" />
    <radialGradient
       xlink:href="#linearGradient8734"
       gradientUnits="userSpaceOnUse"
       gradientTransform="matrix(1.7796094,-6.4399432e-7,0,3.4826371,-711.1346,-185.51868)"
       fy="222.732"
       fx="355.059"
       r="70"
       cy="222.732"
       cx="355.059"
       id="radialGradient12922" />
    <radialGradient
       xlink:href="#linearGradient8734"
       gradientUnits="userSpaceOnUse"
       gradientTransform="matrix(1.7796094,0,0,1.1558382,-711.13504,274.58542)"
       fy="236.553"
       fx="355.266"
       r="70"
       cy="236.553"
       cx="355.266"
       id="radialGradient12928" />
    <radialGradient
       xlink:href="#linearGradient8734"
       gradientUnits="userSpaceOnUse"
       gradientTransform="matrix(0.6520708,-6.4204842e-7,0,1.1584286,-351.80505,274.01364)"
       fy="236.553"
       fx="355.266"
       r="70"
       cy="236.553"
       cx="355.266"
       id="radialGradient12935" />
    <radialGradient
       xlink:href="#linearGradient8746"
       gradientUnits="userSpaceOnUse"
       gradientTransform="matrix(0.6498357,0,0,1.1513867,-350.8407,269.14221)"
       fy="269.55"
       fx="353.747"
       r="70"
       cy="269.55"
       cx="353.747"
       id="radialGradient12941" />
    <radialGradient
       xlink:href="#linearGradient8734"
       gradientUnits="userSpaceOnUse"
       gradientTransform="matrix(-1.7747169,0,0,1.1550902,469.58919,315.1048)"
       fy="229.368"
       fx="355.285"
       r="70"
       cy="229.368"
       cx="355.285"
       id="radialGradient12949" />
    <radialGradient
       xlink:href="#linearGradient8734"
       gradientUnits="userSpaceOnUse"
       gradientTransform="matrix(-1.7796094,-6.4399419e-7,0,3.4826364,471.13462,-185.51859)"
       fy="222.732"
       fx="355.059"
       r="70"
       cy="222.732"
       cx="355.059"
       id="radialGradient12955" />
    <radialGradient
       xlink:href="#linearGradient8734"
       gradientUnits="userSpaceOnUse"
       gradientTransform="matrix(-1.7796094,0,0,1.1576875,471.13463,274.18938)"
       fy="236.553"
       fx="355.266"
       r="70"
       cy="236.553"
       cx="355.266"
       id="radialGradient12962" />
    <linearGradient
       xlink:href="#linearGradient4254-7"
       gradientUnits="userSpaceOnUse"
       y2="912.772"
       y1="909.772"
       x2="317.917"
       x1="317.917"
       id="linearGradient4306" />
    <linearGradient
       id="linearGradient4254-7">
      <stop
         style="stop-color:#888888;stop-opacity:1"
         offset="0"
         id="stop4256" />
      <stop
         style="stop-color:#232323;stop-opacity:1"
         offset="1"
         id="stop4258" />
    </linearGradient>
    <linearGradient
       id="linearGradient5705">
      <stop
         style="stop-color:#efefef;stop-opacity:0.93599999"
         offset="0"
         id="stop5707" />
      <stop
         style="stop-color:#ededed;stop-opacity:0"
         offset="1"
         id="stop5709" />
    </linearGradient>
  </defs>
  <g
     transform="translate(297,-432)"
     id="layer1">
    <rect
       style="opacity:0.875;fill:#008000;fill-opacity:1;stroke:none"
       y="341.68"
       x="-247.07"
       height="40"
       width="40"
       id="hint-tile-center" />
    <path
       style="opacity:0.8;fill:#88c0d0;fill-opacity:1;fill-rule:nonzero;stroke:none"
       d="m -267,447.01572 0,48 48,0 0,-48 -48,0 z"
       id="selected-center" />
    <g
       transform="matrix(1,0,0,3.0009825,-457.14285,-2043.3868)"
       id="selected-left">
      <path
         style="opacity:0.8;fill:#88c0d0;fill-rule:nonzero;stroke:none"
         d="m 186.14285,829.85712 0,16 4,0 0,-16 -4,0 z"
         id="path4119" />
    </g>
    <g
       transform="translate(-457.14285,-382.85718)"
       id="selected-topleft">
      <path
         style="opacity:0.8;fill:#88c0d0;fill-opacity:1;fill-rule:nonzero;stroke:none"
         d="m 186.14285,829.8571 4,0 0,-4 -1.46875,0 c -1.40502,0 -2.53125,1.11588 -2.53125,2.53125 l 0,1.46875 z"
         id="path4131" />
    </g>
    <g
       transform="matrix(0.36657704,0,0,1,-336.71201,-382.8414)"
       id="selected-top">
      <path
         style="opacity:0.8;fill:#88c0d0;fill-opacity:1;fill-rule:nonzero;stroke:none"
         d="m 190.14286,825.85714 0,4 131,0 0,-4 -131,0 z"
         id="path4143" />
    </g>
    <g
       transform="translate(-540.14285,-382.8414)"
       id="selected-topright">
      <path
         style="opacity:0.8;fill:#88c0d0;fill-opacity:1;fill-rule:nonzero;stroke:none"
         d="m 321.14285,825.85714 0,4 4,0 0,-1.46875 c 0,-1.40502 -1.11588,-2.53125 -2.53125,-2.53125 l -1.46875,0 z"
         id="path4155" />
    </g>
    <g
       transform="matrix(1,0,0,3.0000017,-540.14285,-2042.557)"
       id="selected-right">
      <path
         style="opacity:0.8;fill:#88c0d0;fill-opacity:1;fill-rule:nonzero;stroke:none"
         d="m 325.14286,829.85712 0,16 -4,0 0,-16 4,0 z"
         id="path4167" />
    </g>
    <path
       style="opacity:0.005;fill:#ffffff;fill-opacity:0.07843137000000000;fill-rule:nonzero;stroke:none"
       d="m -167.00001,449.01572 0,48 48,0 0,-48 -48,0 z"
       id="normal-center" />
    <g
       style="opacity:0.00499998"
       transform="matrix(0.36657704,0,0,0.49999749,-236.71202,78.073551)"
       id="normal-bottom">
      <g
         id="g4980">
        <path
           style="opacity:0.82272728;fill:#ffffff;fill-opacity:0.07843137;fill-rule:nonzero;stroke:none"
           d="m 190.12705,845.85714 0,4 130.9842,-0.0625 0,-3.9375 -130.9842,0 z"
           id="path4983" />
        <path
           style="opacity:0.85;fill:#000000;fill-opacity:0.15686275;fill-rule:nonzero;stroke:none"
           d="m 190.14285,849.85714 0,1 131,0 0,-1 -131,0 z"
           id="path4985" />
        <path
           style="fill:#ffffff;fill-opacity:0.15686275;fill-rule:nonzero;stroke:none"
           d="m 190.14285,848.85714 0,1 131,0 0,-1 z"
           id="path4987" />
      </g>
      <rect
         style="opacity:0.52100004;fill:#ffffff;fill-opacity:0;stroke:none"
         transform="translate(-342.85715,-17.142857)"
         y="869"
         x="547"
         height="2"
         width="1"
         id="rect4989" />
    </g>
    <g
       style="opacity:0.00499998"
       transform="matrix(0.5714288,0,0,0.49999749,-278.65311,78.073551)"
       id="normal-bottomleft">
      <g
         id="g4993">
        <path
           style="opacity:0.85;fill:#000000;fill-opacity:0.15686275;fill-rule:nonzero;stroke:none"
           d="m 188.6741,850.85716 c -1.94821,0 -3.53125,-1.58839 -3.53125,-3.53125 l 0,-1.46875 1,0 0,1.46875 c 0,1.40502 1.11588,2.53125 2.53125,2.53125 l 1.46875,0 0,1 -1.46875,0 z"
           id="path4995" />
        <path
           style="opacity:0.82272728;fill:#ffffff;fill-opacity:0.07843137;fill-rule:nonzero;stroke:none"
           d="m 190.14285,849.8572 0,-4 -4,0 0,1.46875 c 0,1.40502 1.11588,2.53125 2.53125,2.53125 l 1.46875,0 z"
           id="path4997" />
        <path
           style="fill:#ffffff;fill-opacity:0.15686275;stroke:none"
           d="m 188.74285,849.85718 c -1.66084,0 -2.6,-1.19855 -2.6,-2.7 l 0,-1.3 1,0 -0.021,1.29373 c -0.0208,1.28062 0.23073,1.70627 1.62099,1.70627 l 1.4,0 0,1 z"
           id="path4999" />
      </g>
      <rect
         style="opacity:0.52100004;fill:#ffffff;fill-opacity:0;stroke:none"
         y="851.86"
         x="183.14"
         height="2"
         width="2"
         id="rect5001" />
    </g>
    <g
       style="opacity:0.00499998"
       transform="matrix(0.5714288,0,0,3.0009825,-278.65311,-2041.3868)"
       id="normal-left">
      <g
         id="g5005">
        <path
           style="opacity:0.82272728;fill:#ffffff;fill-opacity:0.07843137;fill-rule:nonzero;stroke:none"
           d="m 186.14285,829.85712 0,16 4,0 0,-16 -4,0 z"
           id="path5007" />
        <path
           style="opacity:0.85;fill:#000000;fill-opacity:0.15686275;fill-rule:nonzero;stroke:none"
           d="m 185.14285,829.85715 0,15.99999 1,0 0,-15.99999 -1,0 z"
           id="path5009" />
        <path
           style="fill:#ffffff;fill-opacity:0.15686275;fill-rule:nonzero;stroke:none"
           d="m 186.14285,829.85715 0,15.99999 1,0 0,-15.99999 -1,0 z"
           id="path5011" />
      </g>
      <rect
         style="opacity:0.52100004;fill:#ffffff;fill-opacity:0;stroke:none"
         y="834.86"
         x="183.14"
         height="3"
         width="2"
         id="rect5013" />
    </g>
    <g
       style="opacity:0.00499998"
       transform="matrix(0.5714288,0,0,0.57143084,-278.65311,-25.205995)"
       id="normal-topleft">
      <g
         id="g5017">
        <path
           style="opacity:0.82272728;fill:#ffffff;fill-opacity:0.07843137;fill-rule:nonzero;stroke:none"
           d="m 186.14285,829.8571 4,0 0,-4 -1.46875,0 c -1.40502,0 -2.53125,1.11588 -2.53125,2.53125 l 0,1.46875 z"
           id="path5019" />
        <path
           style="opacity:0.85;fill:#000000;fill-opacity:0.15686275;fill-rule:nonzero;stroke:none"
           d="m 185.14285,828.3884 c 0,-1.94821 1.58839,-3.53125 3.53125,-3.53125 l 1.46875,0 0,1 -1.46875,0 c -1.40502,0 -2.53125,1.11588 -2.53125,2.53125 l 0,1.46875 -1,0 0,-1.46875 z"
           id="path5021" />
        <path
           style="fill:#ffffff;fill-opacity:0.15686275;fill-rule:nonzero;stroke:none"
           d="m 186.14285,829.8571 1,0 0,-1 c 0,-1.41537 0.59498,-2 2,-2 l 1,0 0,-1 -1.46875,0 c -1.40502,0 -2.53125,1.11588 -2.53125,2.53125 l 0,1.46875 z"
           id="path5023" />
      </g>
      <rect
         style="opacity:0.52100004;fill:#ffffff;fill-opacity:0;stroke:none"
         y="822.86"
         x="183.14"
         height="2"
         width="2"
         id="rect5025" />
    </g>
    <g
       style="opacity:0.00499998"
       transform="matrix(0.36657704,0,0,0.57143165,-236.71202,-25.190896)"
       id="normal-top">
      <g
         id="g5029">
        <path
           style="opacity:0.82272728;fill:#ffffff;fill-opacity:0.07843137;fill-rule:nonzero;stroke:none"
           d="m 190.14286,825.85714 0,4 131,0 0,-4 -131,0 z"
           id="path5031" />
        <path
           style="opacity:0.85;fill:#000000;fill-opacity:0.15686275;fill-rule:nonzero;stroke:none"
           d="m 190.14285,824.85714 0,1 131,0 0,-1 -131,0 z"
           id="path5033" />
        <path
           style="fill:#ffffff;fill-opacity:0.15686275;fill-rule:nonzero;stroke:none"
           d="m 190.14285,825.85714 0,1 131,0 0,-1 -131,0 z"
           id="path5035" />
      </g>
      <rect
         style="opacity:0.52100004;fill:#ffffff;fill-opacity:0;stroke:none"
         y="822.86"
         x="200.14"
         height="2"
         width="3"
         id="rect5037" />
    </g>
    <g
       style="opacity:0.00499998"
       transform="matrix(0.57142857,0,0,0.57143165,-302.51021,-25.190896)"
       id="normal-topright">
      <g
         id="g5041">
        <path
           style="opacity:0.82272728;fill:#ffffff;fill-opacity:0.07843137;fill-rule:nonzero;stroke:none"
           d="m 321.14285,825.85714 0,4 4,0 0,-1.46875 c 0,-1.40502 -1.11588,-2.53125 -2.53125,-2.53125 l -1.46875,0 z"
           id="path5043" />
        <path
           style="opacity:0.85;fill:#000000;fill-opacity:0.15686275;fill-rule:nonzero;stroke:none"
           d="m 322.6116,824.85714 c 1.94821,0 3.53125,1.58839 3.53125,3.53125 l 0,1.46875 -1,0 0,-1.46875 c 0,-1.40502 -1.11588,-2.53125 -2.53125,-2.53125 l -1.46875,0 0,-1 1.46875,0 z"
           id="path5045" />
        <path
           style="fill:#ffffff;fill-opacity:0.15686275;fill-rule:nonzero;stroke:none"
           d="m 325.14285,829.8571 -1,0 0,-1 c 0,-1.41537 -0.59498,-2 -2,-2 l -1,0 0,-1 1.46875,0 c 1.40502,0 2.53125,1.11588 2.53125,2.53125 z"
           id="path5047" />
      </g>
      <rect
         style="opacity:0.52100004;fill:#ffffff;fill-opacity:0;stroke:none"
         y="822.86"
         x="326.14"
         height="2"
         width="2"
         id="rect5049" />
    </g>
    <g
       style="opacity:0.00499998"
       transform="matrix(0.57142857,0,0,3.0000017,-302.51021,-2040.557)"
       id="normal-right">
      <g
         id="g5053">
        <path
           style="opacity:0.82272728;fill:#ffffff;fill-opacity:0.07843137;fill-rule:nonzero;stroke:none"
           d="m 325.14286,829.85712 0,16 -4,0 0,-16 4,0 z"
           id="path5055" />
        <path
           style="opacity:0.85;fill:#000000;fill-opacity:0.15686275;fill-rule:nonzero;stroke:none"
           d="m 326.14286,829.85715 0,15.99999 -1,0 0,-15.99999 1,0 z"
           id="path5057" />
        <path
           style="fill:#ffffff;fill-opacity:0.15686275;fill-rule:nonzero;stroke:none"
           d="m 325.14285,829.85714 0,15.99999 -1,0 0,-15.99999 1,0 z"
           id="path5059" />
      </g>
      <rect
         style="opacity:0.52100004;fill:#ffffff;fill-opacity:0;stroke:none"
         y="832.86"
         x="326.14"
         height="3"
         width="2"
         id="rect5061" />
    </g>
    <g
       style="opacity:0.00499998"
       transform="matrix(0.57142857,0,0,0.49999749,-302.51021,78.073551)"
       id="normal-bottomright">
      <g
         id="g5065">
        <g
           id="g5067">
          <path
             style="opacity:0.82272728;fill:#ffffff;fill-opacity:0.07843137;fill-rule:nonzero;stroke:none"
             d="m 325.1429,845.85714 -4,0 0,4 1.46875,0 c 1.40502,0 2.53125,-1.11588 2.53125,-2.53125 l 0,-1.46875 z"
             id="path5071" />
          <path
             style="fill:#ffffff;fill-opacity:0.15686275;stroke:none"
             d="m 322.14285,849.85714 c 1.59707,0 3,-0.57542 3,-2.99996 0,-0.94263 0,-1 0,-1 l -1,0 c 0,0.88676 0,0.28587 0,1 0,0.89359 -0.31679,1.99996 -2,1.99996 l -1,0 0,1 z"
             id="path5069" />
          <path
             style="opacity:0.85199998;fill:#000000;fill-opacity:0.15686275;fill-rule:nonzero;stroke:none"
             d="m 326.14286,847.32589 c 0,1.94821 -1.58839,3.53125 -3.53125,3.53125 l -1.46875,0 0,-1 1.46875,0 c 1.40502,0 2.53125,-1.11588 2.53125,-2.53125 l 0,-1.46875 1,0 0,1.46875 z"
             id="path5073" />
        </g>
      </g>
      <rect
         style="opacity:0.52100004;fill:#ffffff;fill-opacity:0;stroke:none"
         y="851.86"
         x="326.14"
         height="2"
         width="2"
         id="rect5075" />
    </g>
    <path
       style="opacity:0.6;fill:#88c0d0;fill-opacity:1;fill-rule:nonzero;stroke:none"
       d="m -252,525.46828 0,48 48,0 0,-48 -48,0 z"
       id="hover-center" />
    <g
       transform="matrix(1,0,0,3.0009825,-442.14285,-1964.9342)"
       id="hover-left">
      <path
         style="opacity:0.6;fill:#88c0d0;fill-rule:nonzero;stroke:none;fill-opacity:1"
         d="m 186.14285,829.85712 0,16 4,0 0,-16 -4,0 z"
         id="path4119-9" />
    </g>
    <g
       transform="translate(-442.14285,-304.3891)"
       id="hover-topleft">
      <path
         style="opacity:0.6;fill:#88c0d0;fill-opacity:1;fill-rule:nonzero;stroke:none"
         d="m 186.14285,829.8571 4,0 0,-4 -1.46875,0 c -1.40502,0 -2.53125,1.11588 -2.53125,2.53125 l 0,1.46875 z"
         id="path3133" />
    </g>
    <g
       transform="matrix(0.36657704,0,0,1,-321.71201,-304.38884)"
       id="hover-top">
      <path
         style="opacity:0.6;fill:#88c0d0;fill-opacity:1;fill-rule:nonzero;stroke:none"
         d="m 190.14286,825.85714 0,4 131,0 0,-4 -131,0 z"
         id="path4143-7" />
    </g>
    <g
       transform="translate(-525.14285,-304.38884)"
       id="hover-topright">
      <path
         style="opacity:0.6;fill:#88c0d0;fill-opacity:1;fill-rule:nonzero;stroke:none"
         d="m 321.14285,825.85714 0,4 4,0 0,-1.46875 c 0,-1.40502 -1.11588,-2.53125 -2.53125,-2.53125 l -1.46875,0 z"
         id="path4155-3" />
    </g>
    <g
       transform="matrix(1,0,0,3.0000017,-525.14285,-1964.1044)"
       id="hover-right">
      <path
         style="opacity:0.6;fill:#88c0d0;fill-opacity:1;fill-rule:nonzero;stroke:none"
         d="m 325.14286,829.85712 0,16 -4,0 0,-16 4,0 z"
         id="path4167-1" />
    </g>
    <path
       style="fill:#88c0d0;fill-opacity:1;fill-rule:nonzero;stroke:none;opacity:0.6"
       d="m -147,525.26324 0,48 48,0 0,-48 -48,0 z"
       id="selected+hover-center" />
    <g
       transform="matrix(1,0,0,3.0009825,-337.14285,-1965.1393)"
       id="selected+hover-left">
      <path
         style="fill:#88c0d0;fill-rule:nonzero;stroke:none;opacity:0.6"
         d="m 186.14285,829.85712 0,16 4,0 0,-16 -4,0 z"
         id="path4119-9-6" />
    </g>
    <g
       transform="translate(-337.14285,-304.60966)"
       id="selected+hover-topleft">
      <path
         style="fill:#88c0d0;fill-opacity:1;fill-rule:nonzero;stroke:none;opacity:0.6"
         d="m 186.14285,829.8571 4,0 0,-4 -1.46875,0 c -1.40502,0 -2.53125,1.11588 -2.53125,2.53125 l 0,1.46875 z"
         id="path4131-9-7" />
    </g>
    <g
       transform="matrix(0.36657704,0,0,1,-216.71201,-304.59388)"
       id="selected+hover-top">
      <path
         style="fill:#88c0d0;fill-opacity:1;fill-rule:nonzero;stroke:none;opacity:0.6"
         d="m 190.14286,825.85714 0,4 131,0 0,-4 -131,0 z"
         id="path4143-7-8" />
    </g>
    <g
       transform="translate(-420.14285,-304.59388)"
       id="selected+hover-topright">
      <path
         style="fill:#88c0d0;fill-opacity:1;fill-rule:nonzero;stroke:none;opacity:0.6"
         d="m 321.14285,825.85714 0,4 4,0 0,-1.46875 c 0,-1.40502 -1.11588,-2.53125 -2.53125,-2.53125 l -1.46875,0 z"
         id="path4155-3-0" />
    </g>
    <g
       transform="matrix(1,0,0,3.0000017,-420.14285,-1964.3095)"
       id="selected+hover-right">
      <path
         style="fill:#88c0d0;fill-opacity:1;fill-rule:nonzero;stroke:none;opacity:0.6"
         d="m 325.14286,829.85712 0,16 -4,0 0,-16 4,0 z"
         id="path4167-1-9" />
    </g>
    <g
       transform="matrix(-1,0,0,-1,-28.85715,1324.8728)"
       id="selected-bottomright">
      <path
         style="opacity:0.8;fill:#88c0d0;fill-opacity:1;fill-rule:nonzero;stroke:none"
         d="m 186.14285,829.8571 4,0 0,-4 -1.46875,0 c -1.40502,0 -2.53125,1.11588 -2.53125,2.53125 l 0,1.46875 z"
         id="path4131-3" />
    </g>
    <g
       transform="matrix(-0.36657704,0,0,-1,-149.2764,1324.8729)"
       id="selected-bottom">
      <path
         style="opacity:0.8;fill:#88c0d0;fill-opacity:1;fill-rule:nonzero;stroke:none"
         d="m 190.14286,825.85714 0,4 131,0 0,-4 -131,0 z"
         id="path4143-6" />
    </g>
    <g
       transform="matrix(-1,0,0,-1,54.14285,1324.8729)"
       id="selected-bottomleft">
      <path
         style="opacity:0.8;fill:#88c0d0;fill-opacity:1;fill-rule:nonzero;stroke:none"
         d="m 321.14285,825.85714 0,4 4,0 0,-1.46875 c 0,-1.40502 -1.11588,-2.53125 -2.53125,-2.53125 l -1.46875,0 z"
         id="path4155-5" />
    </g>
    <g
       transform="matrix(-1,0,0,-1,-13.85714,1403.3255)"
       id="hover-bottomright">
      <path
         style="opacity:0.6;fill:#88c0d0;fill-opacity:1;fill-rule:nonzero;stroke:none"
         d="m 186.14285,829.8571 4,0 0,-4 -1.46875,0 c -1.40502,0 -2.53125,1.11588 -2.53125,2.53125 l 0,1.46875 z"
         id="path3133-3" />
    </g>
    <g
       transform="matrix(-0.36657704,0,0,-1,-134.2764,1403.3257)"
       id="hover-bottom">
      <path
         style="opacity:0.6;fill:#88c0d0;fill-opacity:1;fill-rule:nonzero;stroke:none"
         d="m 190.14286,825.85714 0,4 131,0 0,-4 -131,0 z"
         id="path4143-7-6" />
    </g>
    <g
       transform="matrix(-1,0,0,-1,69.14285,1403.3254)"
       id="hover-bottomleft">
      <path
         style="opacity:0.6;fill:#88c0d0;fill-opacity:1;fill-rule:nonzero;stroke:none"
         d="m 321.14285,825.85714 0,4 4,0 0,-1.46875 c 0,-1.40502 -1.11588,-2.53125 -2.53125,-2.53125 l -1.46875,0 z"
         id="path4155-3-03" />
    </g>
    <g
       transform="matrix(-1,0,0,-1,91.14286,1403.1204)"
       id="selected_hover-bottomright">
      <path
         style="fill:#88c0d0;fill-opacity:1;fill-rule:nonzero;stroke:none;opacity:0.6"
         d="m 186.14285,829.8571 4,0 0,-4 -1.46875,0 c -1.40502,0 -2.53125,1.11588 -2.53125,2.53125 l 0,1.46875 z"
         id="path4131-9-7-7" />
    </g>
    <g
       transform="matrix(-0.36657704,0,0,-1,-29.276401,1403.1203)"
       id="selected_hover-bottom">
      <path
         style="fill:#88c0d0;fill-opacity:1;fill-rule:nonzero;stroke:none;opacity:0.6"
         d="m 190.14286,825.85714 0,4 131,0 0,-4 -131,0 z"
         id="path4143-7-8-4" />
    </g>
    <g
       transform="matrix(-1,0,0,-1,174.14285,1403.1204)"
       id="selected_hover-bottomleft">
      <path
         style="fill:#88c0d0;fill-opacity:1;fill-rule:nonzero;stroke:none;opacity:0.6"
         d="m 321.14285,825.85714 0,4 4,0 0,-1.46875 c 0,-1.40502 -1.11588,-2.53125 -2.53125,-2.53125 l -1.46875,0 z"
         id="path4155-3-0-0" />
    </g>
  </g>
</svg>
